<svg id="Layer_1" data-name="Layer 1" xmlns="http://www.w3.org/2000/svg" viewBox="0 0 141 36"><defs><style>.cls-1,.cls-3,.cls-4,.cls-6,.cls-8{fill:#fff;}.cls-2,.cls-3,.cls-4,.cls-6,.cls-8{isolation:isolate;}.cls-3,.cls-4,.cls-6,.cls-8{font-size:4.96px;font-family:ArialMT, Arial;}.cls-4{letter-spacing:-0.07em;}.cls-5{letter-spacing:-0.06em;}.cls-6{letter-spacing:-0.01em;}.cls-7{letter-spacing:-0.04em;}.cls-8{letter-spacing:-0.01em;}</style></defs><path class="cls-1" d="M3.94,3.57H10.7l19.07.06A15.21,15.21,0,0,1,38.58,6a10,10,0,0,1,4.8,8.51c0,5.57-4.56,9.63-10.08,10.85-6.54,1.44-13.94-.56-17.67-5.62-.4-.55-.72-1.14-1.15-1.83,1.15.22,2.15.45,3.17.6a50.87,50.87,0,0,0,12.63.4c3.55-.39,5.38-3.13,4.06-5.89a3.7,3.7,0,0,0-3.26-2c-1.92-.17-3.85-.24-5.78-.34-3.92-.2-7.81-.3-11.81-.6A11.94,11.94,0,0,1,6.65,7.71,8.66,8.66,0,0,1,3.94,3.57Z"/><path class="cls-1" d="M8.56,10.4a65.92,65.92,0,0,0,9.61,1c3.7.17,7.39.3,11.09.46a8.28,8.28,0,0,1,1.48.23A2.6,2.6,0,0,1,33,14.77a2.69,2.69,0,0,1-2.44,2.69,17.75,17.75,0,0,1-2.73.23c-2.85,0-5.72,0-8.54-.25-4.54-.39-8.18-2.06-10.18-5.67A8.52,8.52,0,0,1,8.56,10.4Z"/><path class="cls-1" d="M53.65,3.56,65.41,25.78H41.86Zm0,7.58-5.94,11.2H59.59Z"/><path class="cls-1" d="M68.16,16.08,70.29,21l-2.13,4.82L58.27,3.56h4.32l5.57,12.55ZM71,19.34l-2.13-4.88,4.86-10.9h4.32Z"/><path class="cls-1" d="M82.54,3.56,94.3,25.78H70.75Zm0,7.58L76.6,22.34H88.49Z"/><path class="cls-1" d="M112.49,11.84a7.66,7.66,0,0,1-.39,2.42A8.25,8.25,0,0,1,111,16.4a9.17,9.17,0,0,1-1.66,1.75,8.74,8.74,0,0,1-2.12,1.26l5,6.37h-4.92l-4.43-5.7H99.73l-.8-3.74h4.82a5.12,5.12,0,0,0,1.86-.35,4.85,4.85,0,0,0,1.51-1,4.9,4.9,0,0,0,1-1.44,4.12,4.12,0,0,0,0-3.5,4.46,4.46,0,0,0-1-1.42,5.09,5.09,0,0,0-1.51-1,4.71,4.71,0,0,0-1.86-.29h-5.5V25.78h-4V3.56h9.45a8.57,8.57,0,0,1,3.39.66A8.84,8.84,0,0,1,109.87,6a8.29,8.29,0,0,1,1.88,2.62A7.64,7.64,0,0,1,112.49,11.84Z"/><path class="cls-1" d="M124.28,3.56,136,25.78H112.49Zm0,7.58-6,11.24h11.89Z"/><g class="cls-2"><text class="cls-3" transform="translate(42.59 30.84) scale(1.2 1)">DI</text><text class="cls-3" transform="translate(48.4 30.84) scale(1.2 1)">R</text><text class="cls-3" transform="translate(51.82 30.84) scale(1.2 1)">GAN</text><text class="cls-4" transform="translate(63.67 30.84) scale(1.2 1)">T</text><text class="cls-3" transform="translate(66.64 30.84) scale(1.2 1)">AR<tspan class="cls-5" x="6.89" y="0">A</tspan><tspan x="9.92" y="0" xml:space="preserve"> VIS</tspan></text><text class="cls-6" transform="translate(86.95 30.84) scale(1.2 1)">U</text><text class="cls-3" transform="translate(91.14 30.84) scale(1.2 1)">A<tspan class="cls-7" x="3.31" y="0">L</tspan><tspan class="cls-5" x="5.88" y="0" xml:space="preserve"> A</tspan></text><text class="cls-8" transform="translate(102.74 30.84) scale(1.2 1)">D</text><text class="cls-3" transform="translate(106.95 30.84) scale(1.2 1)">VE</text><text class="cls-6" transform="translate(113.86 30.84) scale(1.2 1)">R</text><text class="cls-3" transform="translate(117.22 30.84) scale(1.2 1)">TISING</text></g></svg>