<svg id="Layer_1" data-name="Layer 1" xmlns="http://www.w3.org/2000/svg" viewBox="0 0 141 36"><defs><style>.cls-1{fill:#fff;}</style></defs><path class="cls-1" d="M44.23,2.57h9l25.37.09c4.3,0,8.31.78,11.72,3.09,4.31,2.93,6.34,6.76,6.38,11.33.07,7.41-6.06,12.81-13.41,14.43-8.7,1.92-18.55-.74-23.51-7.47-.53-.73-1-1.52-1.52-2.43,1.53.29,2.86.6,4.21.79a66.16,66.16,0,0,0,16.81.53c4.71-.52,7.15-4.16,5.4-7.83a4.94,4.94,0,0,0-4.34-2.66c-2.55-.22-5.12-.32-7.69-.45-5.22-.27-10.45-.46-15.67-.81-3.4-.23-6.61-1-9.14-3.1A11.19,11.19,0,0,1,44.23,2.57Z"/><path class="cls-1" d="M50.38,11.67A84.15,84.15,0,0,0,63.17,13c4.91.24,9.83.4,14.75.62a11.88,11.88,0,0,1,2,.31,3.45,3.45,0,0,1,3,3.56,3.56,3.56,0,0,1-3.24,3.57,22.09,22.09,0,0,1-3.64.32c-3.79-.06-7.6,0-11.36-.34-6-.52-10.89-2.74-13.54-7.54A10.84,10.84,0,0,1,50.38,11.67Z"/></svg>