<svg id="Layer_1" data-name="Layer 1" xmlns="http://www.w3.org/2000/svg" viewBox="0 0 1920 1080"><defs><style>.cls-1{fill:#fff;}</style></defs><path class="cls-1" d="M85.09,392.91c30.51,0,60-.07,89.54,0q126.28.36,252.57.81C470,393.86,510,401.5,544,424.57c42.85,29.11,63.09,67.27,63.49,112.75.65,73.85-60.34,127.6-133.5,143.74-86.59,19.11-184.69-7.4-234-74.39-5.35-7.27-9.52-15.13-15.19-24.25,15.23,2.92,28.46,6,41.91,7.92,55.49,8,111.42,11.39,167.38,5.25,46.92-5.15,71.22-41.43,53.76-77.93-7.63-16-23-24.84-43.19-26.56-25.43-2.17-51-3.17-76.56-4.48-52-2.66-104.08-4.55-156-8-33.88-2.26-65.82-10.2-91.06-30.85C102.5,432.64,91.82,414.08,85.09,392.91Z"/><path class="cls-1" d="M146.3,483.44c42.45,8.6,84.83,11.58,127.29,13.61,48.94,2.34,97.92,4,146.87,6.16a113.77,113.77,0,0,1,19.66,3.08c19.41,4.34,30.15,17.25,29.85,35.4-.3,18.61-12.28,32.44-32.23,35.6a214.9,214.9,0,0,1-36.25,3.12c-37.74-.5-75.7,0-113.15-3.29C228.24,571.88,180,549.79,153.5,502,150.73,497,146.43,485,146.3,483.44Z"/><path class="cls-1" d="M743.54,392.89,899.31,687.11h-312Zm0,100.35L664.81,642.16H822.28Z"/><path class="cls-1" d="M935.8,558.67l28.12,64.62L935.8,687.11,804.73,392.89h57.19L935.8,559.07ZM973.45,602l-28.12-64.63,64.34-144.5h57.2Z"/><path class="cls-1" d="M1126.3,392.89l155.77,294.22h-312Zm0,100.35-78.74,148.92H1205Z"/><path class="cls-1" d="M1523,502.47a100.27,100.27,0,0,1-5.11,32.11,109.64,109.64,0,0,1-14.25,28.3,112.82,112.82,0,0,1-21.92,23.28,117.26,117.26,0,0,1-28.09,16.66l65.54,84.29H1454l-58.73-75.46H1354l-10.64-49.77h63.84a65.73,65.73,0,0,0,24.68-4.6,61.46,61.46,0,0,0,20-12.8,64.4,64.4,0,0,0,13.61-19,55.22,55.22,0,0,0,0-46.4,61.88,61.88,0,0,0-13.61-18.81,66.25,66.25,0,0,0-20-12.8,63.57,63.57,0,0,0-24.68-4.8h-72.78V687.11h-52.34V392.89h125.12a117.14,117.14,0,0,1,44.9,8.63A118.61,118.61,0,0,1,1488.9,425a111.27,111.27,0,0,1,24.9,34.72A101,101,0,0,1,1523,502.47Z"/><path class="cls-1" d="M1679.14,392.89l155.77,294.22H1523Zm0,100.35-78.73,148.92h157.47Z"/></svg>